<?xml version="1.0" encoding="utf-8"?><svg xmlns="http://www.w3.org/2000/svg" xmlns:xlink="http://www.w3.org/1999/xlink" width="1536" height="722" preserveAspectRatio="xMidYMid" viewBox="0 0 1536 722" style="z-index:1;margin-right:-1.6px;display:block;background-repeat-y:initial;background-repeat-x:initial;background-color:rgba(221, 221, 221, 0);animation-play-state:paused" ><g transform="translate(768,361) scale(1,1) translate(-768,-361)" style="transform:matrix(1, 0, 0, 1, 0, 0);animation-play-state:paused" ><linearGradient id="lg-0.5973456198032867" x1="0" x2="1" y1="0" y2="0" style="animation-play-state:paused" ><stop stop-color="#d7d9f9" offset="0" style="animation-play-state:paused" ></stop>

  
<stop stop-color="#232126" offset="1" style="animation-play-state:paused" ></stop></linearGradient>
<path d="M 0 0 L 0 656.807 Q 153.6 651.148 307.2 616.508 T 614.4 468.322 T 921.6 446.075 T 1228.8 373.257 T 1536 360.09 L 1536 0 Z" fill="url(#lg-0.5973456198032867)" opacity="0.4" style="opacity:0.4;animation-play-state:paused" ></path>
<path d="M 0 0 L 0 642.029 Q 153.6 582.844 307.2 561.234 T 614.4 545.519 T 921.6 520.019 T 1228.8 421.399 T 1536 364.222 L 1536 0 Z" fill="url(#lg-0.5973456198032867)" opacity="0.4" style="opacity:0.4;animation-play-state:paused" ></path>
<path d="M 0 0 L 0 594.643 Q 153.6 671.898 307.2 624.064 T 614.4 515.935 T 921.6 437.015 T 1228.8 427.477 T 1536 306.42 L 1536 0 Z" fill="url(#lg-0.5973456198032867)" opacity="0.4" style="opacity:0.4;animation-play-state:paused" ></path>
<path d="M 0 0 L 0 692.227 Q 153.6 623.65 307.2 573.739 T 614.4 582.656 T 921.6 516.02 T 1228.8 343.35 T 1536 270.204 L 1536 0 Z" fill="url(#lg-0.5973456198032867)" opacity="0.4" style="opacity:0.4;animation-play-state:paused" ></path>
<path d="M 0 0 L 0 694.12 Q 153.6 582.025 307.2 564.198 T 614.4 474.848 T 921.6 466.547 T 1228.8 401.747 T 1536 327.571 L 1536 0 Z" fill="url(#lg-0.5973456198032867)" opacity="0.4" style="opacity:0.4;animation-play-state:paused" ></path></g></svg>